<svg version="1.1" id="Layer_1" xmlns="http://www.w3.org/2000/svg" xmlns:xlink="http://www.w3.org/1999/xlink" x="0px" y="0px"
	 width="100%" viewBox="0 0 222 222" enable-background="new 0 0 222 222" xml:space="preserve">
<path fill="#000000" opacity="1.000000" stroke="none" 
	d="
M113.000000,223.000000 
	C75.333336,223.000000 38.166672,223.000000 1.000005,223.000000 
	C1.000003,149.000000 1.000003,75.000015 1.000002,1.000015 
	C74.999992,1.000010 148.999985,1.000010 222.999969,1.000005 
	C222.999985,74.999985 222.999985,148.999969 223.000000,222.999969 
	C186.500000,223.000000 150.000000,223.000000 113.000000,223.000000 
M104.860634,107.153313 
	C98.857330,113.002853 92.854034,118.852386 86.664963,124.882942 
	C80.949417,112.217949 82.973694,98.485893 92.364029,89.546104 
	C105.379395,77.155212 119.845634,77.123184 135.065201,86.517838 
	C136.417694,85.095360 137.638199,83.811699 138.854172,82.532814 
	C126.840225,70.014862 102.801285,70.839066 88.791473,83.995934 
	C74.376228,97.533554 72.907936,121.353294 85.567902,134.734268 
	C98.051628,122.018768 110.537346,109.301224 122.978447,96.629135 
	C117.049294,97.634842 110.783722,98.697617 103.693367,99.900291 
	C106.694191,102.326164 108.994431,104.125969 104.860634,107.153313 
M152.350800,118.892159 
	C154.436172,107.384247 152.324677,96.977577 145.052002,88.118095 
	C132.278229,101.100731 119.894409,113.687012 107.702591,126.078156 
	C113.280663,125.125107 119.421982,124.075829 125.881668,122.972153 
	C124.569542,121.161552 123.624519,119.857513 123.272804,119.372177 
	C130.305344,112.247002 137.047546,105.415970 143.703705,98.672119 
	C149.517578,109.556747 146.901184,124.150223 137.113449,134.042145 
	C126.701614,144.564835 112.442139,145.491623 94.874123,136.295044 
	C93.830437,137.542755 92.604301,139.008575 91.369804,140.484390 
	C108.544800,156.467438 144.137619,151.105835 152.350800,118.892159 
z"/>
<path fill="#36AFF5" opacity="1.000000" stroke="none" 
	d="
M105.125854,106.893921 
	C108.994431,104.125969 106.694191,102.326164 103.693367,99.900291 
	C110.783722,98.697617 117.049294,97.634842 122.978447,96.629135 
	C110.537346,109.301224 98.051628,122.018768 85.567902,134.734268 
	C72.907936,121.353294 74.376228,97.533554 88.791473,83.995934 
	C102.801285,70.839066 126.840225,70.014862 138.854172,82.532814 
	C137.638199,83.811699 136.417694,85.095360 135.065201,86.517838 
	C119.845634,77.123184 105.379395,77.155212 92.364029,89.546104 
	C82.973694,98.485893 80.949417,112.217949 86.664963,124.882942 
	C92.854034,118.852386 98.857330,113.002853 105.125854,106.893921 
z"/>
<path fill="#F31515" opacity="1.000000" stroke="none" 
	d="
M152.262604,119.292336 
	C144.137619,151.105835 108.544800,156.467438 91.369804,140.484390 
	C92.604301,139.008575 93.830437,137.542755 94.874123,136.295044 
	C112.442139,145.491623 126.701614,144.564835 137.113449,134.042145 
	C146.901184,124.150223 149.517578,109.556747 143.703705,98.672119 
	C137.047546,105.415970 130.305344,112.247002 123.272804,119.372177 
	C123.624519,119.857513 124.569542,121.161552 125.881668,122.972153 
	C119.421982,124.075829 113.280663,125.125107 107.702591,126.078156 
	C119.894409,113.687012 132.278229,101.100731 145.052002,88.118095 
	C152.324677,96.977577 154.436172,107.384247 152.262604,119.292336 
z"/>
</svg>