<svg xmlns="http://www.w3.org/2000/svg" width="120" height="28" viewBox="0 0 120 28">
    <g fill="none" fill-rule="nonzero">
        <path fill="#231F20" d="M13.249 22.228c.751-.007 1.5-.093 2.233-.258a13.355 13.355 0 0 1-2.385-6.078l4.148-.698a9.77 9.77 0 0 0 1.944 4.558 9.39 9.39 0 0 0 2.204-6.382c0-5.287-3.237-8.949-8.144-8.949-4.908 0-8.16 3.662-8.16 8.95 0 5.287 3.237 8.918 8.16 8.918v-.06zm12.686 4.786a17.154 17.154 0 0 1-6.594-1.717 13.674 13.674 0 0 1-6.077 1.353c-7.597 0-12.99-5.5-12.99-13.28C.273 5.591 5.651 0 13.248 0c7.597 0 12.99 5.515 12.99 13.294a13.674 13.674 0 0 1-3.206 9.117c1.103.34 2.239.558 3.389.653l-.487 3.95zM83.398 1.838v18.75L73.309 1.837h-6.427v25.693h4.725V7.885l10.605 19.646h5.91V1.838zM98.637 17.062V1.87h4.892v15.193c0 4.072 2.157 6.564 5.576 6.564 3.419 0 5.576-2.492 5.576-6.564V1.838h4.877v15.194c0 6.685-3.996 10.833-10.453 10.833-6.457 0-10.468-4.148-10.468-10.833"/>
        <path fill="#FF5C39" d="M33.335 12.823h23.246v4.011H33.335z"/>
        <path fill="#FF5C39" d="M45.854 4.71l10.043 10.043-10.043 10.058 2.765 2.841 12.9-12.899-12.9-12.884z"/>
    </g>
</svg>
