
        <svg xmlns="http://www.w3.org/2000/svg" xmlns:xlink="http://www.w3.org/1999/xlink" version="1.1" width="3173.1967396806594" 
        height="3268.914977939039" viewBox="0 0 3173.1967396806594 3268.914977939039">
			
			<g transform="scale(13.445748896951946) translate(10, 10)">
				<defs id="SvgjsDefs1401"></defs><g id="SvgjsG1402" featureKey="symbolGroupContainer" transform="matrix(1.046875,0,0,1.046875,56,0)" fill="#ffd053"><path xmlns="http://www.w3.org/2000/svg" d="M0 0h100v100H0z"></path></g><g id="SvgjsG1403" featureKey="DUScZC-0" transform="matrix(0.7585415368191223,0,0,0.7585415368191223,70.82292171224073,14.752167466153074)" fill="#201d1d"><path xmlns="http://www.w3.org/2000/svg" d="M74.05,19.592c-4.213-3.223-8.957-5.537-14.098-6.876l-0.373,1.432c4.949,1.29,9.515,3.516,13.571,6.62L74.05,19.592z"></path><path xmlns="http://www.w3.org/2000/svg" d="M40.492,14.022l-0.354-1.437c-15.54,3.837-27.063,16.331-29.358,31.83l1.464,0.217  C14.45,29.729,25.538,17.714,40.492,14.022z"></path><path xmlns="http://www.w3.org/2000/svg" d="M12.343,55.994l-1.46,0.242c2.508,15.149,13.962,27.378,29.179,31.157l0.357-1.437C25.776,82.32,14.755,70.56,12.343,55.994  z"></path><path xmlns="http://www.w3.org/2000/svg" d="M79.729,24.895l-1.113,0.976C84.5,32.584,87.74,41.154,87.74,50c0,0.717-0.029,1.429-0.071,2.139l-0.638-0.562  c-0.803,0.912-2.22,1.799-4.212,2.636l0.572,1.364c1.835-0.77,3.245-1.606,4.217-2.489C86.295,68.366,75.337,81.537,60.06,85.724  l0.392,1.427C77.39,82.509,89.22,67.232,89.22,50C89.22,40.795,85.85,31.879,79.729,24.895z"></path><path xmlns="http://www.w3.org/2000/svg" d="M13.818,45.589c-0.922,0.538-1.67,1.106-2.222,1.69l1.075,1.017c0.455-0.481,1.092-0.962,1.893-1.429L13.818,45.589z"></path><path xmlns="http://www.w3.org/2000/svg" d="M67.662,40.626c-1.723-0.211-3.523-0.391-5.35-0.535l-0.117,1.476c1.807,0.142,3.586,0.32,5.288,0.528L67.662,40.626z"></path><path xmlns="http://www.w3.org/2000/svg" d="M72.949,58.46c1.889-0.348,3.664-0.742,5.275-1.17l-0.38-1.43c-1.574,0.418-3.311,0.803-5.163,1.144L72.949,58.46z"></path><path xmlns="http://www.w3.org/2000/svg" d="M71.993,42.871c1.849,0.326,3.591,0.694,5.179,1.094l0.361-1.435c-1.622-0.409-3.399-0.785-5.283-1.117L71.993,42.871z"></path><path xmlns="http://www.w3.org/2000/svg" d="M67.626,59.285l-0.188-1.468c-1.698,0.218-3.476,0.406-5.285,0.558l0.124,1.475C64.107,59.697,65.906,59.506,67.626,59.285z  "></path><path xmlns="http://www.w3.org/2000/svg" d="M52.318,39.643l-0.01,1.48c1.781,0.012,2.091,0.054,3.839,0.126l0.061-1.479C54.442,39.698,54.115,39.655,52.318,39.643z"></path><path xmlns="http://www.w3.org/2000/svg" d="M40.196,41.42c1.74-0.111,3.527-0.192,5.313-0.241l-0.04-1.479c-1.804,0.05-3.609,0.132-5.366,0.244L40.196,41.42z"></path><path xmlns="http://www.w3.org/2000/svg" d="M46.21,58.839c-1.79-0.042-3.578-0.114-5.314-0.216L40.809,60.1c1.754,0.103,3.559,0.177,5.366,0.218L46.21,58.839z"></path><path xmlns="http://www.w3.org/2000/svg" d="M34.746,40.391c-1.838,0.192-3.634,0.421-5.337,0.682l0.224,1.463c1.679-0.257,3.451-0.484,5.266-0.673L34.746,40.391z"></path><path xmlns="http://www.w3.org/2000/svg" d="M25.106,56.649c-1.86-0.388-3.581-0.823-5.116-1.291l-0.432,1.416c1.577,0.482,3.342,0.927,5.246,1.325L25.106,56.649z"></path><path xmlns="http://www.w3.org/2000/svg" d="M24.107,42.048c-1.916,0.418-3.676,0.886-5.233,1.39l0.455,1.408c1.512-0.489,3.225-0.944,5.095-1.352L24.107,42.048z"></path><path xmlns="http://www.w3.org/2000/svg" d="M35.597,58.208c-1.815-0.179-3.588-0.395-5.272-0.641l-0.214,1.464c1.706,0.25,3.503,0.468,5.34,0.65L35.597,58.208z"></path><path xmlns="http://www.w3.org/2000/svg" d="M53.01,58.871l0.016,1.48c1.797-0.02,2.123-0.071,3.889-0.152l-0.068-1.479C55.098,58.801,54.789,58.851,53.01,58.871z"></path><path xmlns="http://www.w3.org/2000/svg" d="M87.586,46.886c-1.084-0.977-2.721-1.898-4.866-2.735l-0.538,1.379c1.977,0.772,3.462,1.599,4.413,2.456L87.586,46.886z"></path><path xmlns="http://www.w3.org/2000/svg" d="M15.118,53.433c-0.817-0.432-1.496-0.879-2.018-1.329l-0.967,1.121c0.606,0.523,1.378,1.033,2.294,1.517L15.118,53.433z"></path><path xmlns="http://www.w3.org/2000/svg" d="M50,18.723c3.634,0,6.66-2.927,6.66-6.561C56.66,8.543,53.673,5.6,50,5.6s-6.66,2.943-6.66,6.561  C43.34,15.845,46.409,18.723,50,18.723z M50,7.08c2.856,0,5.18,2.28,5.18,5.081c0,2.866-2.397,5.081-5.18,5.081  c-2.772,0-5.18-2.197-5.18-5.081C44.82,9.36,47.144,7.08,50,7.08z"></path><path xmlns="http://www.w3.org/2000/svg" d="M50,81.277c-3.634,0-6.66,2.927-6.66,6.561c0,3.618,2.987,6.561,6.66,6.561s6.66-2.943,6.66-6.561  C56.66,84.155,53.591,81.277,50,81.277z M50,92.92c-2.856,0-5.18-2.28-5.18-5.081c0-2.866,2.397-5.081,5.18-5.081  c2.772,0,5.18,2.197,5.18,5.081C55.18,90.64,52.856,92.92,50,92.92z"></path><rect xmlns="http://www.w3.org/2000/svg" x="49.26" y="21.14" width="1.48" height="28.86"></rect><rect xmlns="http://www.w3.org/2000/svg" x="50.105" y="40.028" transform="matrix(0.7071 -0.7071 0.7071 0.7071 -11.5391 53.6787)" width="17.843" height="1.48"></rect><path xmlns="http://www.w3.org/2000/svg" d="M69.775,25.58c-2.448,0-4.44,1.992-4.44,4.44c0,2.449,1.975,4.44,4.44,4.44c2.448,0,4.44-1.992,4.44-4.44  S72.223,25.58,69.775,25.58z M69.775,32.98c-1.652,0-2.96-1.331-2.96-2.96c0-1.632,1.328-2.96,2.96-2.96  c1.632,0,2.96,1.328,2.96,2.96C72.735,31.652,71.407,32.98,69.775,32.98z"></path><rect xmlns="http://www.w3.org/2000/svg" x="49.26" y="69.98" width="1.48" height="2.96"></rect><rect xmlns="http://www.w3.org/2000/svg" x="49.26" y="52.22" width="1.48" height="2.96"></rect><rect xmlns="http://www.w3.org/2000/svg" x="49.26" y="64.06" width="1.48" height="2.96"></rect><rect xmlns="http://www.w3.org/2000/svg" x="49.26" y="75.9" width="1.48" height="2.96"></rect><rect xmlns="http://www.w3.org/2000/svg" x="49.26" y="58.14" width="1.48" height="2.96"></rect></g><g id="SvgjsG1404" featureKey="MdC7pD-0" transform="matrix(5.476451190938652,0,0,5.476451190938652,-0.2190565330398008,69.90688827564509)" fill="#520a75"><path d="M4.62 20.2 l-3.38 -8.46 l-1.2 0 l0 -0.78 l5.06 0 l0 0.78 l-1.48 0 l2.1 5.42 l2.34 -6.2 l0.86 0 l2.5 6.24 l2.08 -5.46 l-1.42 0 l0 -0.78 l3.58 0 l0 0.78 l-1.22 0 l-3.26 8.46 l-0.86 0 l-2.48 -6.18 l-2.36 6.18 l-0.86 0 z M16.5 21.2 c0 -0.82 0.5 -1.42 1.76 -1.38 c-0.04 0.36 -0.08 0.7 -0.08 1 c0 1.3 0.6 1.84 1.88 1.84 c1.82 0 2.2 -1.1 2.2 -2.86 c0 -2.08 -0.64 -3 -3.04 -3 l-0.32 0 l0 -0.82 l0.32 0 c1.96 0 2.7 -0.8 2.7 -2.9 c0 -1.74 -0.48 -2.32 -1.72 -2.32 c-1.28 0 -1.6 0.72 -1.6 1.96 c0 0.3 0.02 0.62 0.06 0.96 c-1.08 0.02 -1.96 -0.44 -1.96 -1.42 c0 -1.3 1.4 -2.2 3.58 -2.2 c2.38 0 4 1.06 4 3.08 c0 1.68 -1.12 2.62 -3.02 3.16 l0 0.04 c1.9 0.28 3.36 1.06 3.36 3.14 c0 2.38 -1.8 3.88 -4.52 3.88 c-1.94 0 -3.6 -0.74 -3.6 -2.16 z M26.28 15.74 c0 -3.58 1.9 -5.06 4.04 -5.06 c1.66 0 2.44 1.04 2.7 1.48 l1.26 -1.44 l0.74 0 l0 13.06 l1.54 0 l0 0.78 l-5.3 0 l0 -0.78 l1.54 0 l0 -3.52 c0 -0.84 0.06 -1.58 0.06 -1.58 l-0.04 0 c-0.62 1 -1.44 1.6 -2.9 1.6 c-2.46 0 -3.64 -1.74 -3.64 -4.54 z M30.46 19.34 c1.64 0 2.4 -2.18 2.4 -4.14 c0 -1.42 -0.34 -3.56 -2.18 -3.56 c-1.44 0 -2.06 1.22 -2.06 4.02 c0 2.6 0.54 3.68 1.84 3.68 z"></path></g><g id="SvgjsG1405" featureKey="Pp8M4q-0" transform="matrix(0.40061985555042745,0,0,0.40061985555042745,-0.44977580668331435,214.59393711430954)" fill="#201d1d"><path d="M15.439 20.67383 l-1.7285 0.60547 l-1.8945 -2.0703 c-1.0742 0.63477 -2.3535 0.97656 -3.7402 0.97656 c-3.9453 0 -6.9531 -2.6953 -6.9531 -7.0996 c0 -4.3945 3.0078 -7.0801 6.9531 -7.0801 c3.916 0 6.9434 2.6855 6.9434 7.0801 c0 2.1289 -0.71289 3.8672 -1.8848 5.0879 z M3.0566 13.085899999999999 c0 3.4375 2.2168 5.3516 5.0195 5.3516 c2.793 0 4.9902 -1.9141 4.9902 -5.3516 c0 -3.3301 -2.1973 -5.2441 -4.9902 -5.2441 c-2.8027 0 -5.0195 1.9141 -5.0195 5.2441 z M30.597625 20.18555 c-2.8613 0 -5.0781 -1.6895 -5.0781 -4.8047 l0 -9.1895 l1.9434 0 l0 8.916 c0 2.2754 1.3672 3.3203 3.1348 3.3203 s3.1641 -1.0547 3.1641 -3.3203 l0 -8.916 l1.9434 0 l0 9.1895 c0 3.1152 -2.2266 4.8047 -5.1074 4.8047 z M55.951015625 20 l-1.1523 -3.2227 l-6.1719 0 l-1.1523 3.2227 l-2.0215 0 l5.0879 -13.809 l2.3438 0 l5.0879 13.809 l-2.0215 0 z M49.232415625 15.0781 l4.9609 0 l-2.4805 -6.9629 z M77.310296875 6.191000000000001 l1.9336 0 l0 13.809 l-2.0996 0 l-7.2168 -10.957 l0 10.957 l-1.9238 0 l0 -13.809 l2.0801 0 l7.2266 10.908 l0 -10.908 z M98.19138125 6.191000000000001 l0 1.748 l-3.4961 0 l0 12.061 l-1.9238 0 l0 -12.061 l-3.5059 0 l0 -1.748 l8.9258 0 z M113.00778125 20.18555 c-2.8613 0 -5.0781 -1.6895 -5.0781 -4.8047 l0 -9.1895 l1.9434 0 l0 8.916 c0 2.2754 1.3672 3.3203 3.1348 3.3203 s3.1641 -1.0547 3.1641 -3.3203 l0 -8.916 l1.9434 0 l0 9.1895 c0 3.1152 -2.2266 4.8047 -5.1074 4.8047 z M144.240171875 20 l-1.9043 0 l-0.9082 -11.23 l-4.2676 11.23 l-1.1816 0 l-4.2383 -11.191 l-0.92773 11.191 l-1.9141 0 l1.0645 -13.809 l2.627 0 l3.9746 10.439 l3.9941 -10.439 l2.627 0 z M173.843775 20.18555 c-3.916 0 -6.9043 -2.6855 -6.9043 -7.0996 c0 -4.3945 2.9883 -7.0801 6.9043 -7.0801 c2.793 0 5.1074 1.3867 6.1719 3.7598 l-1.7969 0.71289 c-0.80078 -1.6895 -2.4316 -2.6367 -4.375 -2.6367 c-2.7734 0 -4.9707 1.9141 -4.9707 5.2441 c0 3.3496 2.1973 5.2637 4.9707 5.2637 c1.9434 0 3.5742 -0.94727 4.375 -2.6367 l1.7969 0.72266 c-1.0645 2.3633 -3.3789 3.75 -6.1719 3.75 z M196.2578375 20.18555 c-3.916 0 -6.9043 -2.6953 -6.9043 -7.0996 c0 -4.3945 2.9883 -7.0801 6.9043 -7.0801 c3.8965 0 6.8945 2.6855 6.8945 7.0801 c0 4.4043 -2.998 7.0996 -6.8945 7.0996 z M196.2578375 18.3594 c2.7637 0 4.9512 -1.9141 4.9512 -5.2734 c0 -3.3301 -2.1875 -5.2441 -4.9512 -5.2441 c-2.7734 0 -4.9707 1.9141 -4.9707 5.2441 c0 3.3594 2.1973 5.2734 4.9707 5.2734 z M228.603453125 20 l-1.9043 0 l-0.9082 -11.23 l-4.2676 11.23 l-1.1816 0 l-4.2383 -11.191 l-0.92773 11.191 l-1.9141 0 l1.0645 -13.809 l2.627 0 l3.9746 10.439 l3.9941 -10.439 l2.627 0 z M244.9922125 6.191000000000001 c2.5293 0 4.1602 1.9141 4.1602 4.2773 c0 2.3926 -1.6309 4.2383 -4.1602 4.2383 l-3.3789 0 l0 5.293 l-1.9434 0 l0 -13.809 l5.3223 0 z M244.6992125 13.0273 c1.6211 0 2.5293 -1.0449 2.5293 -2.5879 c0 -1.4844 -0.9082 -2.5781 -2.5293 -2.5781 l-3.0859 0 l0 5.166 l3.0859 0 z M264.30075 20.18555 c-2.8613 0 -5.0781 -1.6895 -5.0781 -4.8047 l0 -9.1895 l1.9434 0 l0 8.916 c0 2.2754 1.3672 3.3203 3.1348 3.3203 s3.1641 -1.0547 3.1641 -3.3203 l0 -8.916 l1.9434 0 l0 9.1895 c0 3.1152 -2.2266 4.8047 -5.1074 4.8047 z M288.072240625 6.191000000000001 l0 1.748 l-3.4961 0 l0 12.061 l-1.9238 0 l0 -12.061 l-3.5059 0 l0 -1.748 l8.9258 0 z M298.093740625 20 l0 -13.809 l1.9434 0 l0 13.809 l-1.9434 0 z M320.947015625 6.191000000000001 l1.9336 0 l0 13.809 l-2.0996 0 l-7.2168 -10.957 l0 10.957 l-1.9238 0 l0 -13.809 l2.0801 0 l7.2266 10.908 l0 -10.908 z M340.3535 20.18555 c-3.8672 0 -6.8359 -2.6465 -6.8359 -7.0508 c0 -4.4434 2.9883 -7.1289 6.9043 -7.1289 c2.5391 0 4.7168 1.1133 5.9082 3.2227 l-1.7188 0.91797 c-0.86914 -1.6211 -2.4219 -2.373 -4.1895 -2.373 c-2.793 0 -4.9512 1.8945 -4.9512 5.3223 c0 3.3789 2.1094 5.3418 5.0195 5.3418 c2.3438 0 4.1797 -1.3184 4.502 -3.9355 l-4.5117 0 l0 -1.6211 l6.3965 0 l0 7.1191 l-1.582 0 l0 -2.4805 c-0.9082 1.6895 -2.6172 2.666 -4.9414 2.666 z M374.722675 20.18555 c-2.8809 0 -4.9902 -1.377 -5.459 -3.7207 l1.9824 -0.46875 c0.3125 1.6113 1.709 2.5391 3.5449 2.5391 c1.4746 0 2.8906 -0.60547 2.8613 -2.2656 c-0.019531 -1.6406 -1.7969 -2.0898 -3.6816 -2.6074 c-2.1387 -0.58594 -4.2773 -1.2598 -4.2773 -3.7988 c0 -2.5684 2.1191 -3.8574 4.6289 -3.8574 c2.4316 0 4.6191 1.0254 5.1367 3.3984 l-1.8848 0.47852 c-0.3418 -1.5332 -1.6211 -2.2168 -3.1641 -2.2168 c-1.3867 0 -2.7637 0.60547 -2.7637 2.1777 c0 1.4258 1.543 1.8457 3.291 2.3145 c2.1973 0.5957 4.7168 1.2793 4.7168 4.0527 c0 2.793 -2.3438 3.9746 -4.9316 3.9746 z M390.242178125 20 l0 -13.809 l1.9434 0 l0 13.809 l-1.9434 0 z M418.603453125 20 l-1.9043 0 l-0.9082 -11.23 l-4.2676 11.23 l-1.1816 0 l-4.2383 -11.191 l-0.92773 11.191 l-1.9141 0 l1.0645 -13.809 l2.627 0 l3.9746 10.439 l3.9941 -10.439 l2.627 0 z M434.9922125 6.191000000000001 c2.5293 0 4.1602 1.9141 4.1602 4.2773 c0 2.3926 -1.6309 4.2383 -4.1602 4.2383 l-3.3789 0 l0 5.293 l-1.9434 0 l0 -13.809 l5.3223 0 z M434.6992125 13.0273 c1.6211 0 2.5293 -1.0449 2.5293 -2.5879 c0 -1.4844 -0.9082 -2.5781 -2.5293 -2.5781 l-3.0859 0 l0 5.166 l3.0859 0 z M451.44925 18.2422 l4.7168 0 l0 1.7578 l-6.6602 0 l0 -13.809 l1.9434 0 l0 12.051 z M466.19725625 20 l0 -13.809 l1.9434 0 l0 13.809 l-1.9434 0 z M487.33203125 7.939 l-5.6055 0 l0 4.2871 l4.873 0 l0 1.748 l-4.873 0 l0 6.0254 l-1.9824 0 l0 -13.809 l7.5879 0 l0 1.748 z M497.58788125 20 l0 -13.809 l1.9434 0 l0 13.809 l-1.9434 0 z M518.64455625 7.939 l-5.5273 0 l0 4.2969 l4.873 0 l0 1.7383 l-4.873 0 l0 4.2676 l5.5273 0 l0 1.7578 l-7.5098 0 l0 -13.809 l7.5098 0 l0 1.748 z M529.33006875 20 l0 -13.809 l4.5508 0 c4.248 0 6.4063 2.8516 6.4063 6.8945 c0 4.0723 -2.1582 6.9141 -6.4063 6.9141 l-4.5508 0 z M531.27346875 18.2422 l2.5293 0 c3.0176 0 4.4531 -2.002 4.4531 -5.1563 c0 -3.1348 -1.4355 -5.1465 -4.4531 -5.1465 l-2.5293 0 l0 10.303 z"></path></g>
			</g>
		</svg>
	