<?xml version="1.0" encoding="UTF-8"?>
<!DOCTYPE svg PUBLIC "-//W3C//DTD SVG 1.1//EN" "http://www.w3.org/Graphics/SVG/1.1/DTD/svg11.dtd">
<svg xmlns="http://www.w3.org/2000/svg" version="1.1" width="222px" height="222px" style="shape-rendering:geometricPrecision; text-rendering:geometricPrecision; image-rendering:optimizeQuality; fill-rule:evenodd; clip-rule:evenodd" xmlns:xlink="http://www.w3.org/1999/xlink">
<g><path style="opacity:0.284" fill="#101d26" d="M 137.5,79.5 C 114.549,66.7941 95.216,70.7941 79.5,91.5C 89.269,74.5032 103.936,68.0032 123.5,72C 128.951,73.2228 133.618,75.7228 137.5,79.5 Z"/></g>
<g><path style="opacity:1" fill="#33a2e3" d="M 137.5,79.5 C 138.525,79.8966 138.692,80.5632 138,81.5C 135.716,85.6673 132.883,86.3339 129.5,83.5C 128.713,81.8958 127.38,81.2291 125.5,81.5C 109.778,76.1291 96.9446,80.1291 87,93.5C 82.0494,102.457 81.2161,111.79 84.5,121.5C 84.8966,122.525 85.5632,122.692 86.5,122C 89.7025,118.629 93.0359,115.462 96.5,112.5C 99.7974,109.704 102.964,106.704 106,103.5C 106.163,101.613 105.329,100.113 103.5,99C 104.056,98.6174 104.389,98.1174 104.5,97.5C 109.157,96.8352 113.823,96.1686 118.5,95.5C 120.045,95.5108 121.378,95.8442 122.5,96.5C 109.86,108.806 97.1934,121.139 84.5,133.5C 83.5,132.833 82.5,132.167 81.5,131.5C 77.0835,123.422 75.0835,114.755 75.5,105.5C 76.2468,100.719 77.5802,96.0519 79.5,91.5C 95.216,70.7941 114.549,66.7941 137.5,79.5 Z"/></g>
<g><path style="opacity:0.094" fill="#091218" d="M 125.5,81.5 C 127.38,81.2291 128.713,81.8958 129.5,83.5C 127.847,83.3404 126.514,82.6737 125.5,81.5 Z"/></g>
<g><path style="opacity:0.999" fill="#e31514" d="M 144.5,86.5 C 144.427,88.0269 145.094,89.0269 146.5,89.5C 154.694,103.999 154.194,118.332 145,132.5C 133.96,145.902 120.126,150.569 103.5,146.5C 101.485,145.076 99.1522,144.41 96.5,144.5C 96.0269,143.094 95.0269,142.427 93.5,142.5C 92.5084,142.672 91.8417,142.338 91.5,141.5C 91.0472,140.542 90.3805,139.708 89.5,139C 91,137.5 92.5,136 94,134.5C 109.082,144.622 123.415,143.622 137,131.5C 139.904,128.358 141.738,124.691 142.5,120.5C 146.616,112.527 146.449,104.527 142,96.5C 141.601,96.7284 141.435,97.0618 141.5,97.5C 135.167,103.5 128.833,109.5 122.5,115.5C 121.903,115.735 121.57,116.235 121.5,117C 122.315,118.643 123.315,120.143 124.5,121.5C 118.732,123.128 112.732,124.128 106.5,124.5C 105.761,124.631 105.094,124.464 104.5,124C 111.702,116.631 119.035,109.464 126.5,102.5C 132.222,96.7731 138.222,91.4397 144.5,86.5 Z"/></g>
<g><path style="opacity:0.067" fill="#1a0301" d="M 144.5,86.5 C 145.906,86.9731 146.573,87.9731 146.5,89.5C 145.094,89.0269 144.427,88.0269 144.5,86.5 Z"/></g>
<g><path style="opacity:0.89" fill="#1c3a50" d="M 79.5,91.5 C 77.5802,96.0519 76.2468,100.719 75.5,105.5C 75.5,104.167 75.5,102.833 75.5,101.5C 75.7516,97.6733 77.0849,94.3399 79.5,91.5 Z"/></g>
<g><path style="opacity:0.494" fill="#511008" d="M 144.5,86.5 C 138.222,91.4397 132.222,96.7731 126.5,102.5C 126.5,102.167 126.5,101.833 126.5,101.5C 131.797,95.7019 137.297,90.0353 143,84.5C 143.717,85.0442 144.217,85.7109 144.5,86.5 Z"/></g>
<g><path style="opacity:0.025" fill="#04080c" d="M 122.5,96.5 C 121.378,95.8442 120.045,95.5108 118.5,95.5C 113.823,96.1686 109.157,96.8352 104.5,97.5C 103.167,97.5 102.5,98.1667 102.5,99.5C 100.767,98.9924 100.434,98.159 101.5,97C 108.827,95.7232 116.16,94.5566 123.5,93.5C 123.737,94.791 123.404,95.791 122.5,96.5 Z"/></g>
<g><path style="opacity:0.041" fill="#060000" d="M 126.5,101.5 C 126.5,101.833 126.5,102.167 126.5,102.5C 119.035,109.464 111.702,116.631 104.5,124C 105.094,124.464 105.761,124.631 106.5,124.5C 105.399,125.598 104.066,125.765 102.5,125C 109.726,116.273 117.726,108.439 126.5,101.5 Z"/></g>
<g><path style="opacity:0.039" fill="#220902" d="M 142.5,120.5 C 144.11,112.719 143.777,105.052 141.5,97.5C 141.435,97.0618 141.601,96.7284 142,96.5C 146.449,104.527 146.616,112.527 142.5,120.5 Z"/></g>
<g><path style="opacity:0.455" fill="#18374c" d="M 104.5,97.5 C 104.389,98.1174 104.056,98.6174 103.5,99C 105.329,100.113 106.163,101.613 106,103.5C 102.964,106.704 99.7974,109.704 96.5,112.5C 96.5,112.167 96.5,111.833 96.5,111.5C 98.795,108.703 101.295,106.036 104,103.5C 104.3,101.934 103.8,100.601 102.5,99.5C 102.5,98.1667 103.167,97.5 104.5,97.5 Z"/></g>
<g><path style="opacity:0.041" fill="#000001" d="M 96.5,111.5 C 96.5,111.833 96.5,112.167 96.5,112.5C 93.0359,115.462 89.7025,118.629 86.5,122C 85.5632,122.692 84.8966,122.525 84.5,121.5C 88.2272,117.767 92.2272,114.434 96.5,111.5 Z"/></g>
<g><path style="opacity:0.149" fill="#1b0301" d="M 122.5,115.5 C 123.048,117.394 124.048,119.06 125.5,120.5C 125.376,121.107 125.043,121.44 124.5,121.5C 123.315,120.143 122.315,118.643 121.5,117C 121.57,116.235 121.903,115.735 122.5,115.5 Z"/></g>
<g><path style="opacity:0.043" fill="#070d12" d="M 75.5,101.5 C 75.5,102.833 75.5,104.167 75.5,105.5C 75.0835,114.755 77.0835,123.422 81.5,131.5C 78.0262,127.547 75.8595,122.88 75,117.5C 74.1826,111.984 74.3493,106.65 75.5,101.5 Z"/></g>
<g><path style="opacity:0.037" fill="#040d12" d="M 81.5,131.5 C 82.5,132.167 83.5,132.833 84.5,133.5C 82.6682,134.718 81.6682,134.051 81.5,131.5 Z"/></g>
<g><path style="opacity:0.016" fill="#1c0601" d="M 142.5,120.5 C 141.738,124.691 139.904,128.358 137,131.5C 123.415,143.622 109.082,144.622 94,134.5C 92.5,136 91,137.5 89.5,139C 90.3805,139.708 91.0472,140.542 91.5,141.5C 89.7483,141.582 88.7483,140.749 88.5,139C 89.6667,136.5 91.5,134.667 94,133.5C 114.461,145.173 130.628,140.839 142.5,120.5 Z"/></g>
<g><path style="opacity:0.094" fill="#270c03" d="M 93.5,142.5 C 95.0269,142.427 96.0269,143.094 96.5,144.5C 94.9731,144.573 93.9731,143.906 93.5,142.5 Z"/></g>
<g><path style="opacity:0.831" fill="#6c120d" d="M 96.5,144.5 C 99.1522,144.41 101.485,145.076 103.5,146.5C 100.848,146.59 98.5145,145.924 96.5,144.5 Z"/></g>
</svg>
